# xmcd
#
# Track frame offsets: 
#        150
#        9815
#        19270
#        31010
#        42385
#        53150
#        61655
#        70330
#        80947
#        92532
#        102652
#        113895
#        125612
#        138755
#        148652
#        156567
#        168182
#        178537
#        190950
#        200290
#        210852
#        220805
#        231095
#        243387
#
# Disc length: 3409 seconds
#
# Revision: 2
# Processed by: cddbd v1.5.2PL0 Copyright (c) Steve Scherf et al.
# Submitted via: ExactAudioCopyFreeDBPlugin 1.0
#
DISCID=4a0d4f18
DTITLE=Various Artist - The First Take Is The Deepest
DYEAR=1998
DGENRE=R&B
TTITLE0=Roland Cook - I Was Wrong
TTITLE1=Albert Scott - Can't Let You Go, I Love You So
TTITLE2=Bobby Marchan - I'll Never Let You Go
TTITLE3=Earl King - Nervous Breakdown
TTITLE4=Joe and Ann - Will You
TTITLE5=Calvin Spears - Bugs In Your Head
TTITLE6=Bobby Marchan - I Know
TTITLE7=Joe Tex - Blessed Are These Tears
TTITLE8=Huey Smith - That's All I Can Say
TTITLE9=Gerri Hall - What I Learned About You
TTITLE10=Joe and Ann - Mr. Blues
TTITLE11=Bobby Marchan - It Hurts Me To My Heart
TTITLE12=Earl King - Well-O Well-O Baby
TTITLE13=The Supremes - Honey Honey
TTITLE14=Little Booker - Teenage Rock
TTITLE15=Calvin Spears - Doin' The Rock 'N' Roll
TTITLE16=Bobby Marchan - Chickee Wah Wah
TTITLE17=Joe and Ann - Wherever You May Be
TTITLE18=Calvin Spears - Heaven Came Down
TTITLE19=Earl King - My Love Is Strong
TTITLE20=Gerri Hall - It's Not As Easy As That
TTITLE21=Dave Dixon - I'm Not Satisfied
TTITLE22=Joe and Ann - Gee Baby
TTITLE23=Chuck Carbo - Yes I Got You
EXTD=
EXTT0=
EXTT1=
EXTT2=
EXTT3=
EXTT4=
EXTT5=
EXTT6=
EXTT7=
EXTT8=
EXTT9=
EXTT10=
EXTT11=
EXTT12=
EXTT13=
EXTT14=
EXTT15=
EXTT16=
EXTT17=
EXTT18=
EXTT19=
EXTT20=
EXTT21=
EXTT22=
EXTT23=
PLAYORDER=
